<?xml version="1.0" encoding="UTF-8" standalone="no"?>
<!-- Created with Inkscape (http://www.inkscape.org/) -->

<svg
   width="64"
   height="64"
   viewBox="0 0 16.933334 16.933333"
   version="1.1"
   id="svg1"
   inkscape:version="1.4 (86a8ad7, 2024-10-11)"
   sodipodi:docname="Question.svg"
   inkscape:export-filename="Question.png"
   inkscape:export-xdpi="96"
   inkscape:export-ydpi="96"
   xmlns:inkscape="http://www.inkscape.org/namespaces/inkscape"
   xmlns:sodipodi="http://sodipodi.sourceforge.net/DTD/sodipodi-0.dtd"
   xmlns="http://www.w3.org/2000/svg"
   xmlns:svg="http://www.w3.org/2000/svg">
  <sodipodi:namedview
     id="namedview1"
     pagecolor="#ffffff"
     bordercolor="#666666"
     borderopacity="1.0"
     inkscape:showpageshadow="2"
     inkscape:pageopacity="0.0"
     inkscape:pagecheckerboard="0"
     inkscape:deskcolor="#d1d1d1"
     inkscape:document-units="px"
     inkscape:zoom="8.2243423"
     inkscape:cx="40.063994"
     inkscape:cy="29.424845"
     inkscape:window-width="1920"
     inkscape:window-height="1018"
     inkscape:window-x="-6"
     inkscape:window-y="-6"
     inkscape:window-maximized="1"
     inkscape:current-layer="layer1"
     showgrid="true">
    <inkscape:grid
       id="grid1"
       units="px"
       originx="0"
       originy="0"
       spacingx="0.26458334"
       spacingy="0.26458333"
       empcolor="#0099e5"
       empopacity="0.30196078"
       color="#0099e5"
       opacity="0.14901961"
       empspacing="4"
       enabled="true"
       visible="true" />
  </sodipodi:namedview>
  <defs
     id="defs1" />
  <g
     inkscape:label="Layer 1"
     inkscape:groupmode="layer"
     id="layer1">
    <path
       id="path1"
       style="fill:#000000;stroke-width:1.5875"
       d="M 8.4666666,0.61701655 A 7.8496652,7.8496652 0 0 0 0.61701655,8.4666666 7.8496652,7.8496652 0 0 0 8.4666666,16.316317 7.8496652,7.8496652 0 0 0 16.316317,8.4666666 7.8496652,7.8496652 0 0 0 8.4666666,0.61701655 Z m 0.016537,2.00607905 c 0.4892844,0 0.9444015,0.054882 1.3652914,0.1653646 0.420887,0.1052228 0.786685,0.2739065 1.097091,0.5053955 0.315668,0.2314896 0.560188,0.5284012 0.733805,0.8914185 0.17888,0.3577561 0.268201,0.7894267 0.268201,1.2944946 0,0.3209282 -0.03693,0.6128594 -0.110588,0.8759156 -0.07366,0.257796 -0.181447,0.502317 -0.323494,0.7338053 C 11.371458,7.3209793 11.195304,7.5445438 10.984859,7.7602498 10.774414,7.9706954 10.532382,8.1892796 10.258805,8.415507 10.074668,8.5680802 9.9114802,8.7097946 9.7694295,8.8413208 9.6326408,8.9728501 9.5168648,9.1046025 9.4221639,9.2361287 9.3327256,9.3623955 9.2643589,9.4991289 9.2170085,9.6464396 c -0.047351,0.1420516 -0.070797,0.3052381 -0.070797,0.4893764 0,0.126267 0.01546,0.255011 0.047026,0.386539 0.036829,0.13153 0.084238,0.242324 0.1421102,0.331763 H 7.2600219 c -0.052613,-0.136789 -0.094524,-0.289495 -0.1260905,-0.457853 -0.026297,-0.173618 -0.039791,-0.336804 -0.039791,-0.4893762 0,-0.2420122 0.023963,-0.463086 0.071313,-0.6630086 C 7.2128043,9.0439566 7.2836601,8.8573237 7.378361,8.6837077 7.4730618,8.504828 7.5913268,8.3366611 7.7333781,8.1788289 7.8754293,8.0157337 8.0411058,7.8550378 8.2305054,7.6972046 8.430429,7.5288499 8.6040933,7.3736515 8.7514038,7.2315999 8.903977,7.0842892 9.0327207,6.9395691 9.1379435,6.7975179 9.2431663,6.6502071 9.3225284,6.5005061 9.3751383,6.3479329 c 0.05261,-0.1578327 0.078548,-0.3314971 0.078548,-0.5208984 0,-0.1630952 -0.028944,-0.313313 -0.086816,-0.4501018 C 9.3089978,5.2348815 9.2251714,5.1141245 9.1146891,5.0141642 9.0094663,4.9142039 8.8777139,4.8353585 8.7198812,4.7774861 8.567308,4.7196137 8.3961337,4.6906697 8.2067342,4.6906697 c -0.4103677,0 -0.8360239,0.086832 -1.2779582,0.2604492 C 6.4868307,5.1194754 6.0681396,5.3769643 5.6735555,5.7241984 V 3.3491495 C 6.0786619,3.107138 6.5208106,2.9254857 6.9995727,2.8044799 7.4783349,2.6834738 7.9728742,2.6230956 8.4832036,2.6230956 Z m -0.071314,9.0831664 c 0.4156288,0 0.7604671,0.123766 1.0340455,0.371037 0.2735772,0.242012 0.4103108,0.549402 0.4103108,0.922941 0,0.378801 -0.1342416,0.692204 -0.4025594,0.939478 -0.2735775,0.247274 -0.6209078,0.370522 -1.0417969,0.37052 -0.4208897,0 -0.7707089,-0.126255 -1.0495483,-0.378788 -0.27884,-0.263056 -0.4180624,-0.573452 -0.4180624,-0.93121 0,-0.368278 0.1392224,-0.675668 0.4180624,-0.922941 0.27884,-0.247271 0.6286592,-0.371037 1.0495483,-0.371037 z" />
  </g>
</svg>
