<?xml version="1.0" encoding="UTF-8" standalone="no"?>
<!-- Created with Inkscape (http://www.inkscape.org/) -->

<svg
   width="64"
   height="64"
   viewBox="0 0 16.933334 16.933333"
   version="1.1"
   id="svg1"
   inkscape:version="1.4 (86a8ad7, 2024-10-11)"
   sodipodi:docname="Shuffle.svg"
   inkscape:export-filename="Shuffle.png"
   inkscape:export-xdpi="96"
   inkscape:export-ydpi="96"
   xmlns:inkscape="http://www.inkscape.org/namespaces/inkscape"
   xmlns:sodipodi="http://sodipodi.sourceforge.net/DTD/sodipodi-0.dtd"
   xmlns="http://www.w3.org/2000/svg"
   xmlns:svg="http://www.w3.org/2000/svg">
  <sodipodi:namedview
     id="namedview1"
     pagecolor="#ffffff"
     bordercolor="#666666"
     borderopacity="1.0"
     inkscape:showpageshadow="2"
     inkscape:pageopacity="0.0"
     inkscape:pagecheckerboard="0"
     inkscape:deskcolor="#d1d1d1"
     inkscape:document-units="px"
     inkscape:zoom="8.2243423"
     inkscape:cx="40.063994"
     inkscape:cy="29.424845"
     inkscape:window-width="1920"
     inkscape:window-height="1018"
     inkscape:window-x="-6"
     inkscape:window-y="-6"
     inkscape:window-maximized="1"
     inkscape:current-layer="layer1"
     showgrid="true">
    <inkscape:grid
       id="grid1"
       units="px"
       originx="0"
       originy="0"
       spacingx="0.26458334"
       spacingy="0.26458333"
       empcolor="#0099e5"
       empopacity="0.30196078"
       color="#0099e5"
       opacity="0.14901961"
       empspacing="4"
       enabled="true"
       visible="true" />
  </sodipodi:namedview>
  <defs
     id="defs1" />
  <g
     inkscape:label="Layer 1"
     inkscape:groupmode="layer"
     id="layer1">
    <path
       style="font-size:10.5833px;line-height:1.25;font-family:'Segoe UI';-inkscape-font-specification:'Segoe UI';stroke-width:0.264582"
       d="M 13.075556,3.0878457 V 0.77805373 L 16.15528,3.8577761 13.075556,6.9268051 V 4.6277069 c -0.427738,0 -0.809139,0.078418 -1.144201,0.2352566 -0.335063,0.1568381 -0.662997,0.3707072 -0.983801,0.6416088 -0.03564,0.035645 -0.06772,0.064161 -0.09624,0.085547 -0.02852,0.021386 -0.05702,0.053468 -0.08555,0.096242 0,0.014258 -0.08555,0.1104996 -0.256644,0.2887247 -0.171096,0.1710915 -0.395658,0.3992217 -0.6736894,0.6843804 L 8.8730184,7.6218819 7.7608966,8.7340035 6.6273875,9.8675115 C 6.2566802,10.23822 5.9144889,10.576847 5.6008136,10.883394 l -0.7806243,0.780622 -0.4170456,0.417048 c -0.092677,0.09268 -0.1782243,0.185349 -0.2566437,0.278029 -0.078418,0.09269 -0.1675321,0.18179 -0.267337,0.267338 -0.4348681,0.384966 -0.9160747,0.684383 -1.4436198,0.898253 -0.5275451,0.213868 -1.0800415,0.320803 -1.65748939,0.320803 v -1.539861 c 0.43486809,0 0.81626889,-0.07843 1.14420219,-0.235257 0.3350625,-0.156833 0.6629959,-0.370706 0.9838003,-0.641608 0.035645,-0.03565 0.067725,-0.06417 0.096242,-0.08555 0.028518,-0.02137 0.057033,-0.05347 0.085547,-0.09624 0.064162,-0.09269 0.1461459,-0.185349 0.2459501,-0.278028 0.099806,-0.09269 0.1889187,-0.178232 0.2673368,-0.256645 L 4.8308827,9.4718531 C 5.4796206,8.8231167 6.1247941,8.1815071 6.7664029,7.5470262 7.4080117,6.9125476 8.0496205,6.2709379 8.6912294,5.6222007 8.7910351,5.5223948 8.890841,5.4190246 8.9906466,5.3120897 9.0904525,5.1980259 9.1938225,5.0910911 9.3007575,4.9912852 9.5217565,4.7845445 9.7819646,4.570675 10.081384,4.3496765 10.387929,4.1215489 10.712297,3.9148081 11.05449,3.7294545 11.396681,3.5441008 11.742435,3.3908275 12.091755,3.2696349 12.441076,3.148441 12.76901,3.087845 13.075556,3.0878457 Z m 0,9.2177803 v -2.299097 l 3.079724,3.069028 -3.079724,3.079723 v -2.309793 c -0.306546,0 -0.630915,-0.05702 -0.973105,-0.171091 C 11.760259,13.553202 11.421631,13.40349 11.086569,13.225267 10.758636,13.047042 10.444961,12.850995 10.145543,12.637125 9.8461256,12.416126 9.5859175,12.205822 9.3649185,12.00621 9.1296621,11.79234 8.9015344,11.567777 8.680536,11.33252 8.4666664,11.097263 8.2456676,10.865571 8.0175401,10.637445 L 9.0975816,9.557401 10.59467,11.05449 c 0.07129,0.07129 0.135449,0.142576 0.192481,0.213868 0.05703,0.06417 0.121192,0.12832 0.192484,0.192488 0.285158,0.256644 0.609527,0.463384 0.973106,0.620222 0.363578,0.149714 0.73785,0.224562 1.122815,0.224562 z M 4.7560284,7.3759306 3.2589412,5.878844 C 3.0735876,5.6934904 2.8917983,5.5259592 2.7135737,5.3762503 2.535349,5.2194129 2.3464309,5.0875267 2.1468192,4.9805919 1.9543366,4.8665279 1.7475961,4.7809802 1.5265975,4.7239482 1.3055988,4.6597874 1.0560844,4.6277069 0.77805381,4.6277069 V 3.0878457 c 0.27803059,0 0.55962539,0.028515 0.84478479,0.085547 0.2851596,0.057033 0.5631902,0.139015 0.8340916,0.24595 0.2709015,0.1069343 0.5275449,0.2388208 0.7699306,0.3956591 0.2495144,0.1497093 0.477642,0.3208044 0.6843827,0.5132871 0.085547,0.085547 0.1675322,0.1746611 0.2459499,0.2673371 0.078418,0.085548 0.1604035,0.1710956 0.2459503,0.2566435 l 1.4436199,1.4436198 z"
       id="text1"
       aria-label="🔀"
       sodipodi:nodetypes="cccccscscccccsccsscsccccscsccsccccsscccccccccccccscccsccscccccsscccccc" />
  </g>
</svg>
