<?xml version="1.0" encoding="UTF-8" standalone="no"?>
<!-- Created with Inkscape (http://www.inkscape.org/) -->

<svg
   width="64"
   height="64"
   viewBox="0 0 16.933334 16.933333"
   version="1.1"
   id="svg1"
   inkscape:version="1.4 (86a8ad7, 2024-10-11)"
   sodipodi:docname="Warning.svg"
   inkscape:export-filename="Warning.png"
   inkscape:export-xdpi="96"
   inkscape:export-ydpi="96"
   xmlns:inkscape="http://www.inkscape.org/namespaces/inkscape"
   xmlns:sodipodi="http://sodipodi.sourceforge.net/DTD/sodipodi-0.dtd"
   xmlns="http://www.w3.org/2000/svg"
   xmlns:svg="http://www.w3.org/2000/svg">
  <sodipodi:namedview
     id="namedview1"
     pagecolor="#ffffff"
     bordercolor="#666666"
     borderopacity="1.0"
     inkscape:showpageshadow="2"
     inkscape:pageopacity="0.0"
     inkscape:pagecheckerboard="0"
     inkscape:deskcolor="#d1d1d1"
     inkscape:document-units="px"
     inkscape:zoom="8.2243423"
     inkscape:cx="40.063994"
     inkscape:cy="29.424845"
     inkscape:window-width="1920"
     inkscape:window-height="1018"
     inkscape:window-x="-6"
     inkscape:window-y="-6"
     inkscape:window-maximized="1"
     inkscape:current-layer="layer1"
     showgrid="true">
    <inkscape:grid
       id="grid1"
       units="px"
       originx="0"
       originy="0"
       spacingx="0.26458334"
       spacingy="0.26458333"
       empcolor="#0099e5"
       empopacity="0.30196078"
       color="#0099e5"
       opacity="0.14901961"
       empspacing="4"
       enabled="true"
       visible="true" />
  </sodipodi:namedview>
  <defs
     id="defs1" />
  <g
     inkscape:label="Layer 1"
     inkscape:groupmode="layer"
     id="layer1">
    <path
       id="path1"
       style="fill:#000000;stroke-width:1.5875"
       inkscape:transform-center-y="-2.1885577"
       d="M 8.4666666,1.9011757 0.8852172,15.032158 H 16.048116 Z M 7.5736979,6.0781822 H 9.3487834 L 9.1405273,11.360547 H 7.7716186 Z m 0.8981364,6.0254718 c 0.2851542,0 0.5189466,0.08414 0.7007324,0.251664 0.1817864,0.163963 0.2723348,0.37221 0.2723348,0.625286 0,0.256638 -0.090548,0.468608 -0.2723348,0.636136 -0.178221,0.167529 -0.4120135,0.251665 -0.7007324,0.251665 -0.2851542,0 -0.520033,-0.08574 -0.7053833,-0.256833 -0.1853497,-0.174657 -0.2780192,-0.385025 -0.2780192,-0.630968 0,-0.25664 0.09267,-0.467007 0.2780192,-0.63097 0.188915,-0.163964 0.4237938,-0.24598 0.7053833,-0.24598 z" />
  </g>
</svg>
